<svg version="1.1" id="Layer_1" xmlns="http://www.w3.org/2000/svg" xmlns:xlink="http://www.w3.org/1999/xlink" x="0px" y="0px"
	 width="100%" viewBox="0 0 1062 288" enable-background="new 0 0 1062 288" xml:space="preserve">
<path fill="#FFFFFF" opacity="1.000000" stroke="none" 
	d="
M764.000000,289.000000 
	C509.333374,289.000000 255.166763,289.000000 1.000102,289.000000 
	C1.000068,193.000061 1.000068,97.000122 1.000034,1.000141 
	C354.999878,1.000094 708.999756,1.000094 1062.999756,1.000047 
	C1062.999756,96.999855 1062.999756,192.999710 1062.999878,288.999786 
	C963.500000,289.000000 864.000000,289.000000 764.000000,289.000000 
M935.887146,150.681595 
	C934.881653,145.676056 934.641418,140.354935 932.731140,135.722488 
	C926.282166,120.083679 913.317871,114.783005 897.414001,115.193207 
	C878.472412,115.681770 865.190735,128.414764 862.876526,147.122375 
	C861.671692,156.862167 862.259644,166.255875 865.323914,175.649368 
	C850.320801,175.649368 835.624512,175.649368 820.709961,175.649368 
	C820.709961,145.860138 820.709961,116.412949 820.709961,86.737885 
	C813.077515,86.737885 805.668335,86.737885 798.238831,86.737885 
	C798.238831,123.235085 798.238831,159.470901 798.238831,195.747101 
	C821.043030,195.747101 843.599304,195.747101 866.669800,195.747101 
	C866.669800,190.470856 866.669800,185.436462 866.669800,181.334747 
	C871.761902,185.358429 876.477173,190.386719 882.249512,193.368958 
	C893.562012,199.213470 905.729492,198.564880 917.631775,194.828888 
	C929.109314,191.226273 935.700317,182.029785 935.761536,170.190292 
	C928.975403,170.190292 922.187988,170.190292 915.405029,170.190292 
	C912.651062,180.006836 907.382446,183.284714 897.299133,181.472763 
	C888.758362,179.937988 883.270752,171.391953 884.326477,160.823120 
	C901.365601,160.823120 918.447876,160.823120 935.999817,160.823120 
	C935.999817,157.500427 935.999817,154.558380 935.887146,150.681595 
M121.683701,196.003021 
	C127.768028,196.003021 133.852356,196.003021 139.868561,196.003021 
	C139.868561,159.181549 139.868561,123.062431 139.868561,86.757294 
	C132.256058,86.757294 124.851830,86.757294 116.972923,86.757294 
	C116.972923,100.943825 116.972923,114.836983 116.972923,128.675049 
	C101.560379,128.675049 86.626770,128.675049 71.197205,128.675049 
	C71.197205,114.504242 71.197205,100.586800 71.197205,86.851532 
	C63.471127,86.851532 56.250122,86.851532 48.978401,86.851532 
	C48.978401,123.346672 48.978401,159.448029 48.978401,195.776031 
	C56.416721,195.776031 63.685844,195.776031 71.332016,195.776031 
	C71.332016,180.633087 71.332016,165.526245 71.332016,150.268829 
	C86.783897,150.268829 101.860069,150.268829 117.181290,150.268829 
	C117.181290,164.336746 117.233032,178.140594 117.136497,191.943390 
	C117.117783,194.620148 117.246124,196.659027 121.683701,196.003021 
M745.755005,188.828064 
	C740.205627,182.386230 732.568481,180.713547 724.695557,180.006699 
	C715.920776,179.218872 707.083679,179.099823 698.321838,178.213379 
	C696.537720,178.032898 694.967896,175.734879 693.299255,174.413025 
	C695.169861,172.944992 696.951050,171.332428 698.960876,170.089615 
	C699.638184,169.670807 700.894165,170.221848 701.888672,170.276123 
	C705.698364,170.483994 709.531067,171.030838 713.315979,170.802505 
	C730.635498,169.757675 741.670898,158.755066 741.629517,142.828278 
	C741.610291,135.427750 738.912415,129.007858 732.969177,122.724648 
	C739.388672,121.584190 744.545471,120.668060 749.598022,119.770439 
	C749.598022,114.827065 749.598022,109.905785 749.598022,105.004082 
	C736.915649,104.824669 731.455322,107.640564 725.521667,116.479965 
	C717.026367,116.317963 709.216553,115.339684 701.622192,116.220230 
	C690.466064,117.513756 681.785767,123.439209 678.389343,134.631714 
	C674.962402,145.925064 677.562622,156.009689 686.804199,163.932541 
	C687.355103,164.404892 687.800781,164.999954 688.344421,165.591156 
	C673.619812,173.793564 672.929565,180.942032 685.728943,190.493881 
	C683.930054,191.639954 682.046875,192.635834 680.394226,193.926865 
	C672.023987,200.466003 671.692505,211.722946 680.002686,218.384094 
	C683.034912,220.814606 686.789490,222.691360 690.516663,223.841568 
	C701.204346,227.139771 712.246094,227.064865 723.142639,225.275177 
	C728.285461,224.430496 733.553955,222.712265 738.099609,220.189804 
	C749.895203,213.644348 752.910583,201.202271 745.755005,188.828064 
M160.868332,116.208580 
	C154.302673,116.208580 147.737000,116.208580 140.766235,116.208580 
	C141.145142,117.389038 141.311127,117.997818 141.533386,118.585304 
	C150.672836,142.742996 159.809769,166.901627 168.965134,191.053268 
	C172.305481,199.865021 167.356506,207.449127 157.868408,207.900757 
	C155.095093,208.032761 152.310181,207.921051 149.501495,207.921051 
	C149.501495,214.011551 149.501495,219.554596 149.501495,225.178406 
	C153.983215,225.178406 158.137344,225.165314 162.291367,225.180817 
	C175.409119,225.229767 184.461777,219.255447 189.281250,206.994476 
	C190.192108,204.677231 191.174026,202.384796 191.997940,200.036972 
	C200.339005,176.267929 208.652588,152.489243 216.977844,128.714645 
	C218.384979,124.696304 219.810928,120.684555 221.401810,116.177925 
	C215.364273,116.177925 209.894821,116.501740 204.485367,116.071396 
	C200.446121,115.750061 199.111633,117.505943 198.124222,120.993279 
	C193.132095,138.624680 187.935440,156.198181 182.625961,174.425507 
	C181.911865,172.833054 181.370117,171.857117 181.023056,170.816269 
	C175.392838,153.930405 169.811768,137.028061 164.131866,120.158989 
	C163.653656,118.738747 162.549683,117.529221 160.868332,116.208580 
M490.958588,157.338943 
	C490.946533,155.840073 490.965515,154.340195 490.917847,152.842468 
	C490.054962,125.740814 472.588257,111.387604 445.888580,116.010994 
	C433.655548,118.129288 424.743317,124.899178 420.337982,136.584152 
	C415.540863,149.308197 415.408600,162.389633 420.148773,175.157501 
	C428.296478,197.103714 452.029846,200.962051 471.875916,194.933044 
	C483.955688,191.263367 489.811157,182.998886 490.569092,170.286789 
	C483.656464,170.286789 476.748840,170.286789 469.917725,170.286789 
	C467.709045,179.526489 461.880829,183.300232 452.528168,181.796387 
	C443.600250,180.360825 438.142212,172.008179 439.124023,161.005524 
	C440.752655,161.005524 442.404846,161.006042 444.057037,161.005432 
	C458.381348,161.000137 472.705688,161.001007 487.029999,160.981506 
	C488.914185,160.978943 491.334351,161.646667 490.958588,157.338943 
M1004.515015,193.105316 
	C1013.776489,188.323303 1018.138977,180.521179 1018.780945,170.296875 
	C1011.663879,170.296875 1004.757080,170.296875 997.930359,170.296875 
	C995.728821,179.530396 989.854797,183.318329 980.507996,181.790680 
	C971.562683,180.328659 966.049255,171.822678 967.217712,160.892654 
	C984.285889,160.892654 1001.393188,160.892654 1018.910034,160.892654 
	C1018.910034,157.611862 1019.043213,154.649002 1018.889221,151.701141 
	C1017.428345,123.738396 996.000977,108.762520 969.377747,117.071724 
	C959.391418,120.188492 951.983215,126.460335 948.509155,136.311142 
	C942.894836,152.231049 942.721558,168.210724 952.218811,182.804443 
	C961.749512,197.449631 984.402405,201.737488 1004.515015,193.105316 
M576.977112,150.811768 
	C574.997864,126.865784 558.865479,115.893661 540.567871,115.353127 
	C526.468018,114.936600 513.648193,118.435234 506.227661,131.345383 
	C497.082703,147.255676 496.887878,164.156754 505.479187,180.417267 
	C513.953369,196.456146 534.257446,200.424393 552.084961,195.375763 
	C564.020996,191.995544 572.037720,183.981110 574.978943,171.951462 
	C576.570801,165.440613 576.391663,158.496750 576.977112,150.811768 
M223.793457,152.142578 
	C223.827652,155.965042 223.640259,159.804611 223.933685,163.607071 
	C225.345215,181.899582 238.309875,195.424545 255.801788,197.022125 
	C278.086609,199.057465 293.984741,189.241425 298.522522,169.932129 
	C299.906830,164.041626 300.063782,157.704575 299.787567,151.617188 
	C299.315399,141.210724 296.144135,131.584625 287.872650,124.585579 
	C275.346252,113.986137 260.889099,112.755920 246.133896,118.180977 
	C231.179214,123.679367 224.943420,135.957108 223.793457,152.142578 
M658.389282,196.005585 
	C659.834106,196.005585 661.278931,196.005585 662.832275,196.005585 
	C662.832275,176.562912 663.493591,157.572769 662.635193,138.651581 
	C661.867859,121.737854 651.112427,113.836189 634.319031,115.700104 
	C626.099792,116.612366 620.089417,121.234612 614.152222,127.134102 
	C613.893433,123.084114 613.676758,119.693802 613.471313,116.478371 
	C606.234802,116.478371 599.633972,116.478371 593.032959,116.478371 
	C593.032959,143.060089 593.032959,169.330826 593.032959,195.683502 
	C600.118835,195.683502 606.996826,195.683502 614.018127,195.683502 
	C614.018127,180.043076 614.508789,164.702011 613.813477,149.414917 
	C613.459839,141.639786 617.538330,137.671051 623.083923,134.496765 
	C632.869263,128.895584 641.489319,133.700623 641.823853,144.943329 
	C642.165588,156.431961 641.945984,167.937393 641.964966,179.435471 
	C641.973999,184.873459 641.966492,190.311493 641.966492,196.005585 
	C647.466187,196.005585 652.437561,196.005585 658.389282,196.005585 
M373.960815,176.904663 
	C369.064941,177.441467 364.169067,177.978256 359.247070,178.517914 
	C359.247070,184.680649 359.247070,190.902481 359.247070,196.965744 
	C364.723907,196.965744 369.899292,197.270340 375.028015,196.910034 
	C392.087006,195.711578 401.762115,186.599243 404.106323,169.636612 
	C404.673370,165.533646 404.925018,161.357544 404.943817,157.213364 
	C405.034424,137.229233 404.996002,117.244507 405.002899,97.259995 
	C405.004089,93.803581 405.003082,90.347176 405.003082,86.677200 
	C397.492157,86.677200 390.397461,86.677200 382.787323,86.677200 
	C382.787323,88.653976 382.786499,90.436150 382.787476,92.218323 
	C382.799164,113.535133 382.843536,134.852020 382.789093,156.168655 
	C382.780640,159.483856 382.448151,162.813583 382.040283,166.108719 
	C381.453552,170.848877 379.300720,174.607758 373.960815,176.904663 
M339.499512,161.912903 
	C345.912018,161.912903 352.324524,161.912903 358.653809,161.912903 
	C358.653809,155.117828 358.653809,148.911545 358.653809,142.716553 
	C343.623840,142.716553 328.921600,142.716553 314.323059,142.716553 
	C314.323059,149.248383 314.323059,155.477020 314.323059,161.912903 
	C322.597076,161.912903 330.548431,161.912903 339.499512,161.912903 
z"/>
<path fill="#050505" opacity="1.000000" stroke="none" 
	d="
M935.943481,151.148956 
	C935.999817,154.558380 935.999817,157.500427 935.999817,160.823120 
	C918.447876,160.823120 901.365601,160.823120 884.326477,160.823120 
	C883.270752,171.391953 888.758362,179.937988 897.299133,181.472763 
	C907.382446,183.284714 912.651062,180.006836 915.405029,170.190292 
	C922.187988,170.190292 928.975403,170.190292 935.761536,170.190292 
	C935.700317,182.029785 929.109314,191.226273 917.631775,194.828888 
	C905.729492,198.564880 893.562012,199.213470 882.249512,193.368958 
	C876.477173,190.386719 871.761902,185.358429 866.669800,181.334747 
	C866.669800,185.436462 866.669800,190.470856 866.669800,195.747101 
	C843.599304,195.747101 821.043030,195.747101 798.238831,195.747101 
	C798.238831,159.470901 798.238831,123.235085 798.238831,86.737885 
	C805.668335,86.737885 813.077515,86.737885 820.709961,86.737885 
	C820.709961,116.412949 820.709961,145.860138 820.709961,175.649368 
	C835.624512,175.649368 850.320801,175.649368 865.323914,175.649368 
	C862.259644,166.255875 861.671692,156.862167 862.876526,147.122375 
	C865.190735,128.414764 878.472412,115.681770 897.414001,115.193207 
	C913.317871,114.783005 926.282166,120.083679 932.731140,135.722488 
	C934.641418,140.354935 934.881653,145.676056 935.943481,151.148956 
M884.924744,147.117035 
	C894.845032,147.117035 904.765259,147.117035 914.667114,147.117035 
	C915.024658,136.773956 909.283203,130.171143 900.129700,130.005936 
	C890.335144,129.829163 884.294739,136.121506 884.924744,147.117035 
z"/>
<path fill="#020202" opacity="1.000000" stroke="none" 
	d="
M121.205795,196.003006 
	C117.246124,196.659027 117.117783,194.620148 117.136497,191.943390 
	C117.233032,178.140594 117.181290,164.336746 117.181290,150.268829 
	C101.860069,150.268829 86.783897,150.268829 71.332016,150.268829 
	C71.332016,165.526245 71.332016,180.633087 71.332016,195.776031 
	C63.685844,195.776031 56.416721,195.776031 48.978401,195.776031 
	C48.978401,159.448029 48.978401,123.346672 48.978401,86.851532 
	C56.250122,86.851532 63.471127,86.851532 71.197205,86.851532 
	C71.197205,100.586800 71.197205,114.504242 71.197205,128.675049 
	C86.626770,128.675049 101.560379,128.675049 116.972923,128.675049 
	C116.972923,114.836983 116.972923,100.943825 116.972923,86.757294 
	C124.851830,86.757294 132.256058,86.757294 139.868561,86.757294 
	C139.868561,123.062431 139.868561,159.181549 139.868561,196.003021 
	C133.852356,196.003021 127.768028,196.003021 121.205795,196.003006 
z"/>
<path fill="#040404" opacity="1.000000" stroke="none" 
	d="
M745.979004,189.120239 
	C752.910583,201.202271 749.895203,213.644348 738.099609,220.189804 
	C733.553955,222.712265 728.285461,224.430496 723.142639,225.275177 
	C712.246094,227.064865 701.204346,227.139771 690.516663,223.841568 
	C686.789490,222.691360 683.034912,220.814606 680.002686,218.384094 
	C671.692505,211.722946 672.023987,200.466003 680.394226,193.926865 
	C682.046875,192.635834 683.930054,191.639954 685.728943,190.493881 
	C672.929565,180.942032 673.619812,173.793564 688.344421,165.591156 
	C687.800781,164.999954 687.355103,164.404892 686.804199,163.932541 
	C677.562622,156.009689 674.962402,145.925064 678.389343,134.631714 
	C681.785767,123.439209 690.466064,117.513756 701.622192,116.220230 
	C709.216553,115.339684 717.026367,116.317963 725.521667,116.479965 
	C731.455322,107.640564 736.915649,104.824669 749.598022,105.004082 
	C749.598022,109.905785 749.598022,114.827065 749.598022,119.770439 
	C744.545471,120.668060 739.388672,121.584190 732.969177,122.724648 
	C738.912415,129.007858 741.610291,135.427750 741.629517,142.828278 
	C741.670898,158.755066 730.635498,169.757675 713.315979,170.802505 
	C709.531067,171.030838 705.698364,170.483994 701.888672,170.276123 
	C700.894165,170.221848 699.638184,169.670807 698.960876,170.089615 
	C696.951050,171.332428 695.169861,172.944992 693.299255,174.413010 
	C694.967896,175.734879 696.537720,178.032898 698.321838,178.213379 
	C707.083679,179.099823 715.920776,179.218872 724.695557,180.006699 
	C732.568481,180.713547 740.205627,182.386230 745.979004,189.120239 
M707.006042,157.911911 
	C716.829834,158.219620 721.136902,154.374313 721.648376,144.593430 
	C721.768372,142.298996 721.544312,139.927261 721.081299,137.672653 
	C719.582031,130.371902 713.247375,126.621544 706.083008,128.623215 
	C700.704529,130.125916 697.470032,134.552551 697.049072,140.986923 
	C696.439514,150.304459 698.875732,154.769394 707.006042,157.911911 
M701.075623,211.806320 
	C708.323853,213.563583 715.564636,213.755707 722.605713,211.051987 
	C726.424438,209.585632 729.156006,206.817520 728.588684,202.355484 
	C728.034546,197.997040 724.611145,196.353912 720.780090,196.000732 
	C715.341125,195.499313 709.862732,195.351807 704.397278,195.234009 
	C699.238342,195.122803 694.793701,198.014801 694.083801,201.993408 
	C693.187500,207.016296 696.302795,209.611099 701.075623,211.806320 
z"/>
<path fill="#040404" opacity="1.000000" stroke="none" 
	d="
M161.302383,116.215195 
	C162.549683,117.529221 163.653656,118.738747 164.131866,120.158989 
	C169.811768,137.028061 175.392838,153.930405 181.023056,170.816269 
	C181.370117,171.857117 181.911865,172.833054 182.625961,174.425507 
	C187.935440,156.198181 193.132095,138.624680 198.124222,120.993279 
	C199.111633,117.505943 200.446121,115.750061 204.485367,116.071396 
	C209.894821,116.501740 215.364273,116.177925 221.401810,116.177925 
	C219.810928,120.684555 218.384979,124.696304 216.977844,128.714645 
	C208.652588,152.489243 200.339005,176.267929 191.997940,200.036972 
	C191.174026,202.384796 190.192108,204.677231 189.281250,206.994476 
	C184.461777,219.255447 175.409119,225.229767 162.291367,225.180817 
	C158.137344,225.165314 153.983215,225.178406 149.501495,225.178406 
	C149.501495,219.554596 149.501495,214.011551 149.501495,207.921051 
	C152.310181,207.921051 155.095093,208.032761 157.868408,207.900757 
	C167.356506,207.449127 172.305481,199.865021 168.965134,191.053268 
	C159.809769,166.901627 150.672836,142.742996 141.533386,118.585304 
	C141.311127,117.997818 141.145142,117.389038 140.766235,116.208580 
	C147.737000,116.208580 154.302673,116.208580 161.302383,116.215195 
z"/>
<path fill="#030303" opacity="1.000000" stroke="none" 
	d="
M490.946594,157.813171 
	C491.334351,161.646667 488.914185,160.978943 487.029999,160.981506 
	C472.705688,161.001007 458.381348,161.000137 444.057037,161.005432 
	C442.404846,161.006042 440.752655,161.005524 439.124023,161.005524 
	C438.142212,172.008179 443.600250,180.360825 452.528168,181.796387 
	C461.880829,183.300232 467.709045,179.526489 469.917725,170.286789 
	C476.748840,170.286789 483.656464,170.286789 490.569092,170.286789 
	C489.811157,182.998886 483.955688,191.263367 471.875916,194.933044 
	C452.029846,200.962051 428.296478,197.103714 420.148773,175.157501 
	C415.408600,162.389633 415.540863,149.308197 420.337982,136.584152 
	C424.743317,124.899178 433.655548,118.129288 445.888580,116.010994 
	C472.588257,111.387604 490.054962,125.740814 490.917847,152.842468 
	C490.965515,154.340195 490.946533,155.840073 490.946594,157.813171 
M449.514313,147.164688 
	C456.231384,147.164688 462.948425,147.164688 469.718781,147.164688 
	C468.448944,134.588547 463.017914,129.307022 452.874847,130.059204 
	C444.227539,130.700470 438.610321,137.533127 439.188538,147.164688 
	C442.271606,147.164688 445.396942,147.164688 449.514313,147.164688 
z"/>
<path fill="#030303" opacity="1.000000" stroke="none" 
	d="
M1004.170898,193.260895 
	C984.402405,201.737488 961.749512,197.449631 952.218811,182.804443 
	C942.721558,168.210724 942.894836,152.231049 948.509155,136.311142 
	C951.983215,126.460335 959.391418,120.188492 969.377747,117.071724 
	C996.000977,108.762520 1017.428345,123.738396 1018.889221,151.701141 
	C1019.043213,154.649002 1018.910034,157.611862 1018.910034,160.892654 
	C1001.393188,160.892654 984.285889,160.892654 967.217712,160.892654 
	C966.049255,171.822678 971.562683,180.328659 980.507996,181.790680 
	C989.854797,183.318329 995.728821,179.530396 997.930359,170.296875 
	C1004.757080,170.296875 1011.663879,170.296875 1018.780945,170.296875 
	C1018.138977,180.521179 1013.776489,188.323303 1004.170898,193.260895 
M996.964600,140.771408 
	C993.962280,132.285339 987.087708,128.368652 978.676086,130.351837 
	C970.876404,132.190765 966.231567,139.037537 967.431274,146.827148 
	C977.518005,146.827148 987.588623,146.827148 997.880615,146.827148 
	C997.574402,144.829895 997.324524,143.200363 996.964600,140.771408 
z"/>
<path fill="#030303" opacity="1.000000" stroke="none" 
	d="
M576.994263,151.279999 
	C576.391663,158.496750 576.570801,165.440613 574.978943,171.951462 
	C572.037720,183.981110 564.020996,191.995544 552.084961,195.375763 
	C534.257446,200.424393 513.953369,196.456146 505.479187,180.417267 
	C496.887878,164.156754 497.082703,147.255676 506.227661,131.345383 
	C513.648193,118.435234 526.468018,114.936600 540.567871,115.353127 
	C558.865479,115.893661 574.997864,126.865784 576.994263,151.279999 
M553.418579,142.459686 
	C549.760010,134.001862 545.285522,131.270615 536.318604,132.021866 
	C529.528870,132.590714 524.055237,136.633270 523.262573,143.676544 
	C522.344360,151.835953 522.113098,160.271729 523.125061,168.395538 
	C524.224915,177.224915 530.015869,181.067886 538.946167,181.020477 
	C546.882996,180.978333 552.896362,176.710953 553.814941,168.414413 
	C554.734253,160.110916 553.853027,151.608047 553.418579,142.459686 
z"/>
<path fill="#030303" opacity="1.000000" stroke="none" 
	d="
M223.815704,151.698700 
	C224.943420,135.957108 231.179214,123.679367 246.133896,118.180977 
	C260.889099,112.755920 275.346252,113.986137 287.872650,124.585579 
	C296.144135,131.584625 299.315399,141.210724 299.787567,151.617188 
	C300.063782,157.704575 299.906830,164.041626 298.522522,169.932129 
	C293.984741,189.241425 278.086609,199.057465 255.801788,197.022125 
	C238.309875,195.424545 225.345215,181.899582 223.933685,163.607071 
	C223.640259,159.804611 223.827652,155.965042 223.815704,151.698700 
M246.913116,169.227020 
	C250.151917,178.275360 254.929153,181.655930 263.507446,180.969910 
	C270.676544,180.396606 276.001556,175.740860 276.895111,167.298279 
	C277.703979,159.655884 277.600433,151.766037 276.676270,144.133347 
	C275.743805,136.431732 269.559082,131.985291 261.977264,131.918045 
	C254.222427,131.849258 248.724243,135.999710 246.961884,143.756607 
	C245.105988,151.925156 244.672272,160.182663 246.913116,169.227020 
z"/>
<path fill="#020202" opacity="1.000000" stroke="none" 
	d="
M657.899109,196.005585 
	C652.437561,196.005585 647.466187,196.005585 641.966492,196.005585 
	C641.966492,190.311493 641.973999,184.873459 641.964966,179.435471 
	C641.945984,167.937393 642.165588,156.431961 641.823853,144.943329 
	C641.489319,133.700623 632.869263,128.895584 623.083923,134.496765 
	C617.538330,137.671051 613.459839,141.639786 613.813477,149.414917 
	C614.508789,164.702011 614.018127,180.043076 614.018127,195.683502 
	C606.996826,195.683502 600.118835,195.683502 593.032959,195.683502 
	C593.032959,169.330826 593.032959,143.060089 593.032959,116.478371 
	C599.633972,116.478371 606.234802,116.478371 613.471313,116.478371 
	C613.676758,119.693802 613.893433,123.084114 614.152222,127.134102 
	C620.089417,121.234612 626.099792,116.612366 634.319031,115.700104 
	C651.112427,113.836189 661.867859,121.737854 662.635193,138.651581 
	C663.493591,157.572769 662.832275,176.562912 662.832275,196.005585 
	C661.278931,196.005585 659.834106,196.005585 657.899109,196.005585 
z"/>
<path fill="#020202" opacity="1.000000" stroke="none" 
	d="
M374.330933,176.750061 
	C379.300720,174.607758 381.453552,170.848877 382.040283,166.108719 
	C382.448151,162.813583 382.780640,159.483856 382.789093,156.168655 
	C382.843536,134.852020 382.799164,113.535133 382.787476,92.218323 
	C382.786499,90.436150 382.787323,88.653976 382.787323,86.677200 
	C390.397461,86.677200 397.492157,86.677200 405.003082,86.677200 
	C405.003082,90.347176 405.004089,93.803581 405.002899,97.259995 
	C404.996002,117.244507 405.034424,137.229233 404.943817,157.213364 
	C404.925018,161.357544 404.673370,165.533646 404.106323,169.636612 
	C401.762115,186.599243 392.087006,195.711578 375.028015,196.910034 
	C369.899292,197.270340 364.723907,196.965744 359.247070,196.965744 
	C359.247070,190.902481 359.247070,184.680649 359.247070,178.517914 
	C364.169067,177.978256 369.064941,177.441467 374.330933,176.750061 
z"/>
<path fill="#090909" opacity="1.000000" stroke="none" 
	d="
M338.999634,161.912903 
	C330.548431,161.912903 322.597076,161.912903 314.323059,161.912903 
	C314.323059,155.477020 314.323059,149.248383 314.323059,142.716553 
	C328.921600,142.716553 343.623840,142.716553 358.653809,142.716553 
	C358.653809,148.911545 358.653809,155.117828 358.653809,161.912903 
	C352.324524,161.912903 345.912018,161.912903 338.999634,161.912903 
z"/>
<path fill="#FDFDFD" opacity="1.000000" stroke="none" 
	d="
M884.536255,146.885727 
	C884.294739,136.121506 890.335144,129.829163 900.129700,130.005936 
	C909.283203,130.171143 915.024658,136.773956 914.667114,147.117035 
	C904.765259,147.117035 894.845032,147.117035 884.536255,146.885727 
z"/>
<path fill="#FAFAFA" opacity="1.000000" stroke="none" 
	d="
M706.605225,157.839233 
	C698.875732,154.769394 696.439514,150.304459 697.049072,140.986923 
	C697.470032,134.552551 700.704529,130.125916 706.083008,128.623215 
	C713.247375,126.621544 719.582031,130.371902 721.081299,137.672653 
	C721.544312,139.927261 721.768372,142.298996 721.648376,144.593430 
	C721.136902,154.374313 716.829834,158.219620 706.605225,157.839233 
z"/>
<path fill="#F8F8F8" opacity="1.000000" stroke="none" 
	d="
M700.706665,211.653778 
	C696.302795,209.611099 693.187500,207.016296 694.083801,201.993408 
	C694.793701,198.014801 699.238342,195.122803 704.397278,195.234009 
	C709.862732,195.351807 715.341125,195.499313 720.780090,196.000732 
	C724.611145,196.353912 728.034546,197.997040 728.588684,202.355484 
	C729.156006,206.817520 726.424438,209.585632 722.605713,211.051987 
	C715.564636,213.755707 708.323853,213.563583 700.706665,211.653778 
z"/>
<path fill="#FAFAFA" opacity="1.000000" stroke="none" 
	d="
M449.018311,147.164688 
	C445.396942,147.164688 442.271606,147.164688 439.188538,147.164688 
	C438.610321,137.533127 444.227539,130.700470 452.874847,130.059204 
	C463.017914,129.307022 468.448944,134.588547 469.718781,147.164688 
	C462.948425,147.164688 456.231384,147.164688 449.018311,147.164688 
z"/>
<path fill="#FAFAFA" opacity="1.000000" stroke="none" 
	d="
M997.019653,141.171112 
	C997.324524,143.200363 997.574402,144.829895 997.880615,146.827148 
	C987.588623,146.827148 977.518005,146.827148 967.431274,146.827148 
	C966.231567,139.037537 970.876404,132.190765 978.676086,130.351837 
	C987.087708,128.368652 993.962280,132.285339 997.019653,141.171112 
z"/>
<path fill="#FDFDFD" opacity="1.000000" stroke="none" 
	d="
M553.589844,142.826141 
	C553.853027,151.608047 554.734253,160.110916 553.814941,168.414413 
	C552.896362,176.710953 546.882996,180.978333 538.946167,181.020477 
	C530.015869,181.067886 524.224915,177.224915 523.125061,168.395538 
	C522.113098,160.271729 522.344360,151.835953 523.262573,143.676544 
	C524.055237,136.633270 529.528870,132.590714 536.318604,132.021866 
	C545.285522,131.270615 549.760010,134.001862 553.589844,142.826141 
z"/>
<path fill="#FCFCFC" opacity="1.000000" stroke="none" 
	d="
M246.831238,168.824768 
	C244.672272,160.182663 245.105988,151.925156 246.961884,143.756607 
	C248.724243,135.999710 254.222427,131.849258 261.977264,131.918045 
	C269.559082,131.985291 275.743805,136.431732 276.676270,144.133347 
	C277.600433,151.766037 277.703979,159.655884 276.895111,167.298279 
	C276.001556,175.740860 270.676544,180.396606 263.507446,180.969910 
	C254.929153,181.655930 250.151917,178.275360 246.831238,168.824768 
z"/>
</svg>